<?xml version="1.0" encoding="utf-8" standalone="no"?>
<!DOCTYPE svg PUBLIC "-//W3C//DTD SVG 1.1//EN"
  "http://www.w3.org/Graphics/SVG/1.1/DTD/svg11.dtd">
<svg xmlns:xlink="http://www.w3.org/1999/xlink" width="144.394pt" height="130.72pt" viewBox="0 0 144.394 130.72" xmlns="http://www.w3.org/2000/svg" version="1.1">
 <metadata>
  <rdf:RDF xmlns:dc="http://purl.org/dc/elements/1.1/" xmlns:cc="http://creativecommons.org/ns#" xmlns:rdf="http://www.w3.org/1999/02/22-rdf-syntax-ns#">
   <cc:Work>
    <dc:type rdf:resource="http://purl.org/dc/dcmitype/StillImage"/>
    <dc:date>2026-09-17T10:55:27.688613</dc:date>
    <dc:format>image/svg+xml</dc:format>
    <dc:creator>
     <cc:Agent>
      <dc:title>Matplotlib v3.10.8, https://matplotlib.org/</dc:title>
     </cc:Agent>
    </dc:creator>
   </cc:Work>
  </rdf:RDF>
 </metadata>
 <defs>
  <style type="text/css">*{stroke-linejoin: round; stroke-linecap: butt}</style>
 </defs>
 <g id="figure_1">
  <g id="patch_1">
   <path d="M 0 130.72 
L 144.394 130.72 
L 144.394 0 
L 0 0 
z
" style="fill: #ffffff"/>
  </g>
  <g id="axes_1">
   <g id="patch_2">
    <path d="M 47 82.72 
L 139.394 82.72 
L 139.394 6 
L 47 6 
z
" style="fill: #ffffff"/>
   </g>
   <g id="matplotlib.axis_1">
    <g id="xtick_1">
     <g id="line2d_1">
      <defs>
       <path id="m1ee2be0d44" d="M 0 0 
L 0 3 
" style="stroke: #000000; stroke-width: 0.75"/>
      </defs>
      <g>
       <use xlink:href="#m1ee2be0d44" x="54.6995" y="82.72" style="stroke: #000000; stroke-width: 0.75"/>
      </g>
     </g>
     <g id="text_1">
      <text style="font-size: 8.5px; font-family: 'Times New Roman'; text-anchor: end" x="60.048698" y="90.214372" transform="rotate(-65 60.048698 90.214372)">MG</text>
     </g>
    </g>
    <g id="xtick_2">
     <g id="line2d_2">
      <g>
       <use xlink:href="#m1ee2be0d44" x="65.698786" y="82.72" style="stroke: #000000; stroke-width: 0.75"/>
      </g>
     </g>
     <g id="text_2">
      <!-- MG$^{\mathrm{gatA}}$ -->
      <g transform="translate(60.235296 113.402257) rotate(-65)">
       <text>
        <tspan x="0" y="-0.715625" style="font-size: 8.5px; font-family: 'Times New Roman'">M</tspan>
        <tspan x="7.557861" y="-0.715625" style="font-size: 8.5px; font-family: 'Times New Roman'">G</tspan>
        <tspan x="13.777773" y="-3.975" style="font-size: 5.95px; font-family: 'Times New Roman'">g</tspan>
        <tspan x="16.752773" y="-3.975" style="font-size: 5.95px; font-family: 'Times New Roman'">a</tspan>
        <tspan x="19.393667" y="-3.975" style="font-size: 5.95px; font-family: 'Times New Roman'">t</tspan>
        <tspan x="21.046768" y="-3.975" style="font-size: 5.95px; font-family: 'Times New Roman'">A</tspan>
       </text>
      </g>
     </g>
    </g>
    <g id="xtick_3">
     <g id="line2d_3">
      <g>
       <use xlink:href="#m1ee2be0d44" x="76.698071" y="82.72" style="stroke: #000000; stroke-width: 0.75"/>
      </g>
     </g>
     <g id="text_3">
      <!-- MG$^{\mathrm{glvC}}$ -->
      <g transform="translate(71.234582 113.402257) rotate(-65)">
       <text>
        <tspan x="0" y="-0.60625" style="font-size: 8.5px; font-family: 'Times New Roman'">M</tspan>
        <tspan x="7.557861" y="-0.60625" style="font-size: 8.5px; font-family: 'Times New Roman'">G</tspan>
        <tspan x="13.777773" y="-3.865625" style="font-size: 5.95px; font-family: 'Times New Roman'">g</tspan>
        <tspan x="16.752773" y="-3.865625" style="font-size: 5.95px; font-family: 'Times New Roman'">l</tspan>
        <tspan x="18.405874" y="-3.865625" style="font-size: 5.95px; font-family: 'Times New Roman'">v</tspan>
        <tspan x="21.380874" y="-3.865625" style="font-size: 5.95px; font-family: 'Times New Roman'">C</tspan>
       </text>
      </g>
     </g>
    </g>
    <g id="xtick_4">
     <g id="line2d_4">
      <g>
       <use xlink:href="#m1ee2be0d44" x="87.697357" y="82.72" style="stroke: #000000; stroke-width: 0.75"/>
      </g>
     </g>
     <g id="text_4">
      <!-- MG$^{\mathrm{hipA}}$ -->
      <g transform="translate(82.090177 113.710402) rotate(-65)">
       <text>
        <tspan x="0" y="-0.60625" style="font-size: 8.5px; font-family: 'Times New Roman'">M</tspan>
        <tspan x="7.557861" y="-0.60625" style="font-size: 8.5px; font-family: 'Times New Roman'">G</tspan>
        <tspan x="13.777773" y="-3.865625" style="font-size: 5.95px; font-family: 'Times New Roman'">h</tspan>
        <tspan x="16.752773" y="-3.865625" style="font-size: 5.95px; font-family: 'Times New Roman'">i</tspan>
        <tspan x="18.405874" y="-3.865625" style="font-size: 5.95px; font-family: 'Times New Roman'">p</tspan>
        <tspan x="21.380874" y="-3.865625" style="font-size: 5.95px; font-family: 'Times New Roman'">A</tspan>
       </text>
      </g>
     </g>
    </g>
    <g id="xtick_5">
     <g id="line2d_5">
      <g>
       <use xlink:href="#m1ee2be0d44" x="98.696643" y="82.72" style="stroke: #000000; stroke-width: 0.75"/>
      </g>
     </g>
     <g id="text_5">
      <!-- MG$^{\mathrm{selB}}$ -->
      <g transform="translate(93.628301 112.554859) rotate(-65)">
       <text>
        <tspan x="0" y="-0.60625" style="font-size: 8.5px; font-family: 'Times New Roman'">M</tspan>
        <tspan x="7.557861" y="-0.60625" style="font-size: 8.5px; font-family: 'Times New Roman'">G</tspan>
        <tspan x="13.777773" y="-3.865625" style="font-size: 5.95px; font-family: 'Times New Roman'">s</tspan>
        <tspan x="16.093276" y="-3.865625" style="font-size: 5.95px; font-family: 'Times New Roman'">e</tspan>
        <tspan x="18.73417" y="-3.865625" style="font-size: 5.95px; font-family: 'Times New Roman'">l</tspan>
        <tspan x="20.387271" y="-3.865625" style="font-size: 5.95px; font-family: 'Times New Roman'">B</tspan>
       </text>
      </g>
     </g>
    </g>
    <g id="xtick_6">
     <g id="line2d_6">
      <g>
       <use xlink:href="#m1ee2be0d44" x="109.695929" y="82.72" style="stroke: #000000; stroke-width: 0.75"/>
      </g>
     </g>
     <g id="text_6">
      <!-- MG$^{\mathrm{rpoZ}}$ -->
      <g transform="translate(104.232439 113.402257) rotate(-65)">
       <text>
        <tspan x="0" y="-0.803125" style="font-size: 8.5px; font-family: 'Times New Roman'">M</tspan>
        <tspan x="7.557861" y="-0.803125" style="font-size: 8.5px; font-family: 'Times New Roman'">G</tspan>
        <tspan x="13.777773" y="-4.0625" style="font-size: 5.95px; font-family: 'Times New Roman'">r</tspan>
        <tspan x="15.75917" y="-4.0625" style="font-size: 5.95px; font-family: 'Times New Roman'">p</tspan>
        <tspan x="18.73417" y="-4.0625" style="font-size: 5.95px; font-family: 'Times New Roman'">o</tspan>
        <tspan x="21.70917" y="-4.0625" style="font-size: 5.95px; font-family: 'Times New Roman'">Z</tspan>
       </text>
      </g>
     </g>
    </g>
    <g id="xtick_7">
     <g id="line2d_7">
      <g>
       <use xlink:href="#m1ee2be0d44" x="120.695214" y="82.72" style="stroke: #000000; stroke-width: 0.75"/>
      </g>
     </g>
     <g id="text_7">
      <!-- MG$^{\mathrm{ftsH}}$ -->
      <g transform="translate(115.770563 112.246715) rotate(-65)">
       <text>
        <tspan x="0" y="-0.617188" style="font-size: 8.5px; font-family: 'Times New Roman'">M</tspan>
        <tspan x="7.557861" y="-0.617188" style="font-size: 8.5px; font-family: 'Times New Roman'">G</tspan>
        <tspan x="13.777773" y="-3.876563" style="font-size: 5.95px; font-family: 'Times New Roman'">f</tspan>
        <tspan x="15.75917" y="-3.876563" style="font-size: 5.95px; font-family: 'Times New Roman'">t</tspan>
        <tspan x="17.412271" y="-3.876563" style="font-size: 5.95px; font-family: 'Times New Roman'">s</tspan>
        <tspan x="19.727773" y="-3.876563" style="font-size: 5.95px; font-family: 'Times New Roman'">H</tspan>
       </text>
      </g>
     </g>
    </g>
    <g id="xtick_8">
     <g id="line2d_8">
      <g>
       <use xlink:href="#m1ee2be0d44" x="131.6945" y="82.72" style="stroke: #000000; stroke-width: 0.75"/>
      </g>
     </g>
     <g id="text_8">
      <!-- MG$^{\mathrm{fimE}}$ -->
      <g transform="translate(126.08732 113.710402) rotate(-65)">
       <text>
        <tspan x="0" y="-0.60625" style="font-size: 8.5px; font-family: 'Times New Roman'">M</tspan>
        <tspan x="7.557861" y="-0.60625" style="font-size: 8.5px; font-family: 'Times New Roman'">G</tspan>
        <tspan x="13.777773" y="-3.865625" style="font-size: 5.95px; font-family: 'Times New Roman'">f</tspan>
        <tspan x="15.75917" y="-3.865625" style="font-size: 5.95px; font-family: 'Times New Roman'">i</tspan>
        <tspan x="17.412271" y="-3.865625" style="font-size: 5.95px; font-family: 'Times New Roman'">m</tspan>
        <tspan x="22.040371" y="-3.865625" style="font-size: 5.95px; font-family: 'Times New Roman'">E</tspan>
       </text>
      </g>
     </g>
    </g>
   </g>
   <g id="matplotlib.axis_2">
    <g id="ytick_1">
     <g id="line2d_9">
      <defs>
       <path id="m7c01fc8664" d="M 0 0 
L -3 0 
" style="stroke: #000000; stroke-width: 0.75"/>
      </defs>
      <g>
       <use xlink:href="#m7c01fc8664" x="47" y="82.72" style="stroke: #000000; stroke-width: 0.75"/>
      </g>
     </g>
     <g id="text_9">
      <!-- $\mathdefault{10^{1}}$ -->
      <g transform="translate(30.015 86.485898)">
       <text>
        <tspan x="0" y="-0.865438" style="font-size: 8.5px; font-family: 'Times New Roman'">1</tspan>
        <tspan x="4.25" y="-0.865438" style="font-size: 8.5px; font-family: 'Times New Roman'">0</tspan>
        <tspan x="8.627739" y="-5.975" style="font-size: 5.95px; font-family: 'Times New Roman'">1</tspan>
       </text>
      </g>
     </g>
    </g>
    <g id="ytick_2">
     <g id="line2d_10">
      <g>
       <use xlink:href="#m7c01fc8664" x="47" y="44.36" style="stroke: #000000; stroke-width: 0.75"/>
      </g>
     </g>
     <g id="text_10">
      <!-- $\mathdefault{10^{2}}$ -->
      <g transform="translate(30.015 48.125898)">
       <text>
        <tspan x="0" y="-0.865438" style="font-size: 8.5px; font-family: 'Times New Roman'">1</tspan>
        <tspan x="4.25" y="-0.865438" style="font-size: 8.5px; font-family: 'Times New Roman'">0</tspan>
        <tspan x="8.627739" y="-5.975" style="font-size: 5.95px; font-family: 'Times New Roman'">2</tspan>
       </text>
      </g>
     </g>
    </g>
    <g id="ytick_3">
     <g id="line2d_11">
      <g>
       <use xlink:href="#m7c01fc8664" x="47" y="6" style="stroke: #000000; stroke-width: 0.75"/>
      </g>
     </g>
     <g id="text_11">
      <!-- $\mathdefault{10^{3}}$ -->
      <g transform="translate(30.015 9.765898)">
       <text>
        <tspan x="0" y="-0.865438" style="font-size: 8.5px; font-family: 'Times New Roman'">1</tspan>
        <tspan x="4.25" y="-0.865438" style="font-size: 8.5px; font-family: 'Times New Roman'">0</tspan>
        <tspan x="8.627739" y="-5.975" style="font-size: 5.95px; font-family: 'Times New Roman'">3</tspan>
       </text>
      </g>
     </g>
    </g>
    <g id="ytick_4">
     <g id="line2d_12">
      <defs>
       <path id="m8f40367335" d="M 0 0 
L -1.7 0 
" style="stroke: #000000; stroke-width: 0.5"/>
      </defs>
      <g>
       <use xlink:href="#m8f40367335" x="47" y="71.172489" style="stroke: #000000; stroke-width: 0.5"/>
      </g>
     </g>
    </g>
    <g id="ytick_5">
     <g id="line2d_13">
      <g>
       <use xlink:href="#m8f40367335" x="47" y="64.417629" style="stroke: #000000; stroke-width: 0.5"/>
      </g>
     </g>
    </g>
    <g id="ytick_6">
     <g id="line2d_14">
      <g>
       <use xlink:href="#m8f40367335" x="47" y="59.624979" style="stroke: #000000; stroke-width: 0.5"/>
      </g>
     </g>
    </g>
    <g id="ytick_7">
     <g id="line2d_15">
      <g>
       <use xlink:href="#m8f40367335" x="47" y="55.907511" style="stroke: #000000; stroke-width: 0.5"/>
      </g>
     </g>
    </g>
    <g id="ytick_8">
     <g id="line2d_16">
      <g>
       <use xlink:href="#m8f40367335" x="47" y="52.870118" style="stroke: #000000; stroke-width: 0.5"/>
      </g>
     </g>
    </g>
    <g id="ytick_9">
     <g id="line2d_17">
      <g>
       <use xlink:href="#m8f40367335" x="47" y="50.302039" style="stroke: #000000; stroke-width: 0.5"/>
      </g>
     </g>
    </g>
    <g id="ytick_10">
     <g id="line2d_18">
      <g>
       <use xlink:href="#m8f40367335" x="47" y="48.077468" style="stroke: #000000; stroke-width: 0.5"/>
      </g>
     </g>
    </g>
    <g id="ytick_11">
     <g id="line2d_19">
      <g>
       <use xlink:href="#m8f40367335" x="47" y="46.115257" style="stroke: #000000; stroke-width: 0.5"/>
      </g>
     </g>
    </g>
    <g id="ytick_12">
     <g id="line2d_20">
      <g>
       <use xlink:href="#m8f40367335" x="47" y="32.812489" style="stroke: #000000; stroke-width: 0.5"/>
      </g>
     </g>
    </g>
    <g id="ytick_13">
     <g id="line2d_21">
      <g>
       <use xlink:href="#m8f40367335" x="47" y="26.057629" style="stroke: #000000; stroke-width: 0.5"/>
      </g>
     </g>
    </g>
    <g id="ytick_14">
     <g id="line2d_22">
      <g>
       <use xlink:href="#m8f40367335" x="47" y="21.264979" style="stroke: #000000; stroke-width: 0.5"/>
      </g>
     </g>
    </g>
    <g id="ytick_15">
     <g id="line2d_23">
      <g>
       <use xlink:href="#m8f40367335" x="47" y="17.547511" style="stroke: #000000; stroke-width: 0.5"/>
      </g>
     </g>
    </g>
    <g id="ytick_16">
     <g id="line2d_24">
      <g>
       <use xlink:href="#m8f40367335" x="47" y="14.510118" style="stroke: #000000; stroke-width: 0.5"/>
      </g>
     </g>
    </g>
    <g id="ytick_17">
     <g id="line2d_25">
      <g>
       <use xlink:href="#m8f40367335" x="47" y="11.942039" style="stroke: #000000; stroke-width: 0.5"/>
      </g>
     </g>
    </g>
    <g id="ytick_18">
     <g id="line2d_26">
      <g>
       <use xlink:href="#m8f40367335" x="47" y="9.717468" style="stroke: #000000; stroke-width: 0.5"/>
      </g>
     </g>
    </g>
    <g id="ytick_19">
     <g id="line2d_27">
      <g>
       <use xlink:href="#m8f40367335" x="47" y="7.755257" style="stroke: #000000; stroke-width: 0.5"/>
      </g>
     </g>
    </g>
    <g id="text_12">
     <text style="font-size: 9.5px; font-family: 'Times New Roman'" transform="translate(15.017094 63.091328) rotate(-90)">Amikacin</text>
     <text style="font-size: 9.5px; font-family: 'Times New Roman'" transform="translate(24.965078 70.521367) rotate(-90)">MIC (μg/mL)</text>
    </g>
   </g>
   <g id="patch_3">
    <path d="M 47 82.72 
L 47 6 
" style="fill: none; stroke: #000000; stroke-width: 0.75; stroke-linejoin: miter; stroke-linecap: square"/>
   </g>
   <g id="patch_4">
    <path d="M 139.394 82.72 
L 139.394 6 
" style="fill: none; stroke: #000000; stroke-width: 0.75; stroke-linejoin: miter; stroke-linecap: square"/>
   </g>
   <g id="patch_5">
    <path d="M 47 82.72 
L 139.394 82.72 
" style="fill: none; stroke: #000000; stroke-width: 0.75; stroke-linejoin: miter; stroke-linecap: square"/>
   </g>
   <g id="patch_6">
    <path d="M 47 6 
L 139.394 6 
" style="fill: none; stroke: #000000; stroke-width: 0.75; stroke-linejoin: miter; stroke-linecap: square"/>
   </g>
   <g id="LineCollection_1">
    <path d="M 50.0798 53.908706 
L 59.3192 53.908706 
" clip-path="url(#p2a2b8c1c61)" style="fill: none; stroke: #000000; stroke-width: 1.05"/>
   </g>
   <g id="LineCollection_2">
    <path d="M 61.079086 61.575082 
L 70.318486 61.575082 
" clip-path="url(#p2a2b8c1c61)" style="fill: none; stroke: #000000; stroke-width: 1.05"/>
   </g>
   <g id="LineCollection_3">
    <path d="M 72.078371 55.93955 
L 81.317771 55.93955 
" clip-path="url(#p2a2b8c1c61)" style="fill: none; stroke: #000000; stroke-width: 1.05"/>
   </g>
   <g id="LineCollection_4">
    <path d="M 83.077657 59.395134 
L 92.317057 59.395134 
" clip-path="url(#p2a2b8c1c61)" style="fill: none; stroke: #000000; stroke-width: 1.05"/>
   </g>
   <g id="LineCollection_5">
    <path d="M 94.076943 59.467843 
L 103.316343 59.467843 
" clip-path="url(#p2a2b8c1c61)" style="fill: none; stroke: #000000; stroke-width: 1.05"/>
   </g>
   <g id="LineCollection_6">
    <path d="M 105.076229 57.356556 
L 114.315629 57.356556 
" clip-path="url(#p2a2b8c1c61)" style="fill: none; stroke: #000000; stroke-width: 1.05"/>
   </g>
   <g id="LineCollection_7">
    <path d="M 116.075514 66.090588 
L 125.314914 66.090588 
" clip-path="url(#p2a2b8c1c61)" style="fill: none; stroke: #000000; stroke-width: 1.05"/>
   </g>
   <g id="LineCollection_8">
    <path d="M 127.0748 48.808857 
L 136.3142 48.808857 
" clip-path="url(#p2a2b8c1c61)" style="fill: none; stroke: #000000; stroke-width: 1.05"/>
   </g>
   <g id="PathCollection_1">
    <defs>
     <path id="ma9afbb2e18" d="M 0 1.581139 
C 0.419323 1.581139 0.821528 1.41454 1.118034 1.118034 
C 1.41454 0.821528 1.581139 0.419323 1.581139 0 
C 1.581139 -0.419323 1.41454 -0.821528 1.118034 -1.118034 
C 0.821528 -1.41454 0.419323 -1.581139 0 -1.581139 
C -0.419323 -1.581139 -0.821528 -1.41454 -1.118034 -1.118034 
C -1.41454 -0.821528 -1.581139 -0.419323 -1.581139 0 
C -1.581139 0.419323 -1.41454 0.821528 -1.118034 1.118034 
C -0.821528 1.41454 -0.419323 1.581139 0 1.581139 
z
" style="stroke: #000000; stroke-width: 0.35"/>
    </defs>
    <g clip-path="url(#p2a2b8c1c61)">
     <use xlink:href="#ma9afbb2e18" x="50.739757" y="48.40396" style="fill: #808080; stroke: #000000; stroke-width: 0.35"/>
     <use xlink:href="#ma9afbb2e18" x="54.6995" y="57.940721" style="fill: #808080; stroke: #000000; stroke-width: 0.35"/>
     <use xlink:href="#ma9afbb2e18" x="55.579443" y="55.381437" style="fill: #808080; stroke: #000000; stroke-width: 0.35"/>
    </g>
   </g>
   <g id="PathCollection_2">
    <defs>
     <path id="m23656c2b05" d="M 0 1.581139 
C 0.419323 1.581139 0.821528 1.41454 1.118034 1.118034 
C 1.41454 0.821528 1.581139 0.419323 1.581139 0 
C 1.581139 -0.419323 1.41454 -0.821528 1.118034 -1.118034 
C 0.821528 -1.41454 0.419323 -1.581139 0 -1.581139 
C -0.419323 -1.581139 -0.821528 -1.41454 -1.118034 -1.118034 
C -1.41454 -0.821528 -1.581139 -0.419323 -1.581139 0 
C -1.581139 0.419323 -1.41454 0.821528 -1.118034 1.118034 
C -0.821528 1.41454 -0.419323 1.581139 0 1.581139 
z
" style="stroke: #000000; stroke-width: 0.35"/>
    </defs>
    <g clip-path="url(#p2a2b8c1c61)">
     <use xlink:href="#m23656c2b05" x="61.739043" y="60.34101" style="fill: #ff0000; stroke: #000000; stroke-width: 0.35"/>
     <use xlink:href="#m23656c2b05" x="65.698786" y="58.047485" style="fill: #ff0000; stroke: #000000; stroke-width: 0.35"/>
     <use xlink:href="#m23656c2b05" x="66.578729" y="66.33675" style="fill: #ff0000; stroke: #000000; stroke-width: 0.35"/>
    </g>
   </g>
   <g id="PathCollection_3">
    <defs>
     <path id="m318d087fbd" d="M 0 1.581139 
C 0.419323 1.581139 0.821528 1.41454 1.118034 1.118034 
C 1.41454 0.821528 1.581139 0.419323 1.581139 0 
C 1.581139 -0.419323 1.41454 -0.821528 1.118034 -1.118034 
C 0.821528 -1.41454 0.419323 -1.581139 0 -1.581139 
C -0.419323 -1.581139 -0.821528 -1.41454 -1.118034 -1.118034 
C -1.41454 -0.821528 -1.581139 -0.419323 -1.581139 0 
C -1.581139 0.419323 -1.41454 0.821528 -1.118034 1.118034 
C -0.821528 1.41454 -0.419323 1.581139 0 1.581139 
z
" style="stroke: #000000; stroke-width: 0.35"/>
    </defs>
    <g clip-path="url(#p2a2b8c1c61)">
     <use xlink:href="#m318d087fbd" x="72.738329" y="64.118813" style="fill: #ffa500; stroke: #000000; stroke-width: 0.35"/>
     <use xlink:href="#m318d087fbd" x="76.698071" y="53.643014" style="fill: #ffa500; stroke: #000000; stroke-width: 0.35"/>
     <use xlink:href="#m318d087fbd" x="77.578014" y="50.056824" style="fill: #ffa500; stroke: #000000; stroke-width: 0.35"/>
    </g>
   </g>
   <g id="PathCollection_4">
    <defs>
     <path id="m807c367739" d="M 0 1.581139 
C 0.419323 1.581139 0.821528 1.41454 1.118034 1.118034 
C 1.41454 0.821528 1.581139 0.419323 1.581139 0 
C 1.581139 -0.419323 1.41454 -0.821528 1.118034 -1.118034 
C 0.821528 -1.41454 0.419323 -1.581139 0 -1.581139 
C -0.419323 -1.581139 -0.821528 -1.41454 -1.118034 -1.118034 
C -1.41454 -0.821528 -1.581139 -0.419323 -1.581139 0 
C -1.581139 0.419323 -1.41454 0.821528 -1.118034 1.118034 
C -0.821528 1.41454 -0.419323 1.581139 0 1.581139 
z
" style="stroke: #000000; stroke-width: 0.35"/>
    </defs>
    <g clip-path="url(#p2a2b8c1c61)">
     <use xlink:href="#m807c367739" x="83.737614" y="60.905323" style="fill: #32cd32; stroke: #000000; stroke-width: 0.35"/>
     <use xlink:href="#m807c367739" x="87.697357" y="59.72019" style="fill: #32cd32; stroke: #000000; stroke-width: 0.35"/>
     <use xlink:href="#m807c367739" x="88.5773" y="57.559888" style="fill: #32cd32; stroke: #000000; stroke-width: 0.35"/>
    </g>
   </g>
   <g id="PathCollection_5">
    <defs>
     <path id="mf4592a0834" d="M 0 1.581139 
C 0.419323 1.581139 0.821528 1.41454 1.118034 1.118034 
C 1.41454 0.821528 1.581139 0.419323 1.581139 0 
C 1.581139 -0.419323 1.41454 -0.821528 1.118034 -1.118034 
C 0.821528 -1.41454 0.419323 -1.581139 0 -1.581139 
C -0.419323 -1.581139 -0.821528 -1.41454 -1.118034 -1.118034 
C -1.41454 -0.821528 -1.581139 -0.419323 -1.581139 0 
C -1.581139 0.419323 -1.41454 0.821528 -1.118034 1.118034 
C -0.821528 1.41454 -0.419323 1.581139 0 1.581139 
z
" style="stroke: #000000; stroke-width: 0.35"/>
    </defs>
    <g clip-path="url(#p2a2b8c1c61)">
     <use xlink:href="#mf4592a0834" x="94.7369" y="57.7347" style="fill: #008000; stroke: #000000; stroke-width: 0.35"/>
     <use xlink:href="#mf4592a0834" x="98.696643" y="56.993022" style="fill: #008000; stroke: #000000; stroke-width: 0.35"/>
     <use xlink:href="#mf4592a0834" x="99.576586" y="63.675806" style="fill: #008000; stroke: #000000; stroke-width: 0.35"/>
    </g>
   </g>
   <g id="PathCollection_6">
    <defs>
     <path id="m4f680ea6da" d="M 0 1.581139 
C 0.419323 1.581139 0.821528 1.41454 1.118034 1.118034 
C 1.41454 0.821528 1.581139 0.419323 1.581139 0 
C 1.581139 -0.419323 1.41454 -0.821528 1.118034 -1.118034 
C 0.821528 -1.41454 0.419323 -1.581139 0 -1.581139 
C -0.419323 -1.581139 -0.821528 -1.41454 -1.118034 -1.118034 
C -1.41454 -0.821528 -1.581139 -0.419323 -1.581139 0 
C -1.581139 0.419323 -1.41454 0.821528 -1.118034 1.118034 
C -0.821528 1.41454 -0.419323 1.581139 0 1.581139 
z
" style="stroke: #000000; stroke-width: 0.35"/>
    </defs>
    <g clip-path="url(#p2a2b8c1c61)">
     <use xlink:href="#m4f680ea6da" x="105.736186" y="56.99466" style="fill: #0000ff; stroke: #000000; stroke-width: 0.35"/>
     <use xlink:href="#m4f680ea6da" x="109.695929" y="59.50699" style="fill: #0000ff; stroke: #000000; stroke-width: 0.35"/>
     <use xlink:href="#m4f680ea6da" x="110.575871" y="55.568018" style="fill: #0000ff; stroke: #000000; stroke-width: 0.35"/>
    </g>
   </g>
   <g id="PathCollection_7">
    <defs>
     <path id="m7fa5fe2658" d="M 0 1.581139 
C 0.419323 1.581139 0.821528 1.41454 1.118034 1.118034 
C 1.41454 0.821528 1.581139 0.419323 1.581139 0 
C 1.581139 -0.419323 1.41454 -0.821528 1.118034 -1.118034 
C 0.821528 -1.41454 0.419323 -1.581139 0 -1.581139 
C -0.419323 -1.581139 -0.821528 -1.41454 -1.118034 -1.118034 
C -1.41454 -0.821528 -1.581139 -0.419323 -1.581139 0 
C -1.581139 0.419323 -1.41454 0.821528 -1.118034 1.118034 
C -0.821528 1.41454 -0.419323 1.581139 0 1.581139 
z
" style="stroke: #000000; stroke-width: 0.35"/>
    </defs>
    <g clip-path="url(#p2a2b8c1c61)">
     <use xlink:href="#m7fa5fe2658" x="116.735471" y="61.117052" style="fill: #800080; stroke: #000000; stroke-width: 0.35"/>
     <use xlink:href="#m7fa5fe2658" x="120.695214" y="57.959547" style="fill: #800080; stroke: #000000; stroke-width: 0.35"/>
     <use xlink:href="#m7fa5fe2658" x="121.575157" y="79.195166" style="fill: #800080; stroke: #000000; stroke-width: 0.35"/>
    </g>
   </g>
   <g id="PathCollection_8">
    <defs>
     <path id="mee54cb1ffd" d="M 0 1.581139 
C 0.419323 1.581139 0.821528 1.41454 1.118034 1.118034 
C 1.41454 0.821528 1.581139 0.419323 1.581139 0 
C 1.581139 -0.419323 1.41454 -0.821528 1.118034 -1.118034 
C 0.821528 -1.41454 0.419323 -1.581139 0 -1.581139 
C -0.419323 -1.581139 -0.821528 -1.41454 -1.118034 -1.118034 
C -1.41454 -0.821528 -1.581139 -0.419323 -1.581139 0 
C -1.581139 0.419323 -1.41454 0.821528 -1.118034 1.118034 
C -0.821528 1.41454 -0.419323 1.581139 0 1.581139 
z
" style="stroke: #000000; stroke-width: 0.35"/>
    </defs>
    <g clip-path="url(#p2a2b8c1c61)">
     <use xlink:href="#mee54cb1ffd" x="127.734757" y="42.681005" style="fill: #a52a2a; stroke: #000000; stroke-width: 0.35"/>
     <use xlink:href="#mee54cb1ffd" x="131.6945" y="51.042969" style="fill: #a52a2a; stroke: #000000; stroke-width: 0.35"/>
     <use xlink:href="#mee54cb1ffd" x="132.574443" y="52.702599" style="fill: #a52a2a; stroke: #000000; stroke-width: 0.35"/>
    </g>
   </g>
  </g>
 </g>
 <defs>
  <clipPath id="p2a2b8c1c61">
   <rect x="47" y="6" width="92.394" height="76.72"/>
  </clipPath>
 </defs>
</svg>
