<?xml version="1.0" encoding="utf-8" standalone="no"?>
<!DOCTYPE svg PUBLIC "-//W3C//DTD SVG 1.1//EN"
  "http://www.w3.org/Graphics/SVG/1.1/DTD/svg11.dtd">
<svg xmlns:xlink="http://www.w3.org/1999/xlink" width="364.32pt" height="281.52pt" viewBox="0 0 364.32 281.52" xmlns="http://www.w3.org/2000/svg" version="1.1">
 <metadata>
  <rdf:RDF xmlns:dc="http://purl.org/dc/elements/1.1/" xmlns:cc="http://creativecommons.org/ns#" xmlns:rdf="http://www.w3.org/1999/02/22-rdf-syntax-ns#">
   <cc:Work>
    <dc:type rdf:resource="http://purl.org/dc/dcmitype/StillImage"/>
    <dc:date>2026-09-20T14:37:52.337199</dc:date>
    <dc:format>image/svg+xml</dc:format>
    <dc:creator>
     <cc:Agent>
      <dc:title>Matplotlib v3.10.8, https://matplotlib.org/</dc:title>
     </cc:Agent>
    </dc:creator>
   </cc:Work>
  </rdf:RDF>
 </metadata>
 <defs>
  <style type="text/css">*{stroke-linejoin: round; stroke-linecap: butt}</style>
 </defs>
 <g id="figure_1">
  <g id="patch_1">
   <path d="M 0 281.52 
L 364.32 281.52 
L 364.32 0 
L 0 0 
z
" style="fill: #ffffff"/>
  </g>
  <g id="axes_1">
   <g id="patch_2">
    <path d="M 61.9344 240.6996 
L 353.3904 240.6996 
L 353.3904 21.114 
L 61.9344 21.114 
z
" style="fill: #ffffff"/>
   </g>
   <g id="matplotlib.axis_1">
    <g id="xtick_1">
     <g id="line2d_1">
      <defs>
       <path id="m97ed392637" d="M 0 0 
L 0 4 
" style="stroke: #000000; stroke-width: 1.1"/>
      </defs>
      <g>
       <use xlink:href="#m97ed392637" x="77.274189" y="240.6996" style="stroke: #000000; stroke-width: 1.1"/>
      </g>
     </g>
     <g id="text_1">
      <text style="font-size: 14px; font-family: 'Times New Roman'; text-anchor: middle" x="77.274189" y="256.42085" transform="rotate(-0 77.274189 256.42085)">2</text>
     </g>
    </g>
    <g id="xtick_2">
     <g id="line2d_2">
      <g>
       <use xlink:href="#m97ed392637" x="107.953768" y="240.6996" style="stroke: #000000; stroke-width: 1.1"/>
      </g>
     </g>
     <g id="text_2">
      <text style="font-size: 14px; font-family: 'Times New Roman'; text-anchor: middle" x="107.953768" y="256.42085" transform="rotate(-0 107.953768 256.42085)">4</text>
     </g>
    </g>
    <g id="xtick_3">
     <g id="line2d_3">
      <g>
       <use xlink:href="#m97ed392637" x="138.633347" y="240.6996" style="stroke: #000000; stroke-width: 1.1"/>
      </g>
     </g>
     <g id="text_3">
      <text style="font-size: 14px; font-family: 'Times New Roman'; text-anchor: middle" x="138.633347" y="256.42085" transform="rotate(-0 138.633347 256.42085)">6</text>
     </g>
    </g>
    <g id="xtick_4">
     <g id="line2d_4">
      <g>
       <use xlink:href="#m97ed392637" x="169.312926" y="240.6996" style="stroke: #000000; stroke-width: 1.1"/>
      </g>
     </g>
     <g id="text_4">
      <text style="font-size: 14px; font-family: 'Times New Roman'; text-anchor: middle" x="169.312926" y="256.42085" transform="rotate(-0 169.312926 256.42085)">8</text>
     </g>
    </g>
    <g id="xtick_5">
     <g id="line2d_5">
      <g>
       <use xlink:href="#m97ed392637" x="199.992505" y="240.6996" style="stroke: #000000; stroke-width: 1.1"/>
      </g>
     </g>
     <g id="text_5">
      <text style="font-size: 14px; font-family: 'Times New Roman'; text-anchor: middle" x="199.992505" y="256.42085" transform="rotate(-0 199.992505 256.42085)">10</text>
     </g>
    </g>
    <g id="xtick_6">
     <g id="line2d_6">
      <g>
       <use xlink:href="#m97ed392637" x="230.672084" y="240.6996" style="stroke: #000000; stroke-width: 1.1"/>
      </g>
     </g>
     <g id="text_6">
      <text style="font-size: 14px; font-family: 'Times New Roman'; text-anchor: middle" x="230.672084" y="256.42085" transform="rotate(-0 230.672084 256.42085)">12</text>
     </g>
    </g>
    <g id="xtick_7">
     <g id="line2d_7">
      <g>
       <use xlink:href="#m97ed392637" x="261.351663" y="240.6996" style="stroke: #000000; stroke-width: 1.1"/>
      </g>
     </g>
     <g id="text_7">
      <text style="font-size: 14px; font-family: 'Times New Roman'; text-anchor: middle" x="261.351663" y="256.42085" transform="rotate(-0 261.351663 256.42085)">14</text>
     </g>
    </g>
    <g id="xtick_8">
     <g id="line2d_8">
      <g>
       <use xlink:href="#m97ed392637" x="292.031242" y="240.6996" style="stroke: #000000; stroke-width: 1.1"/>
      </g>
     </g>
     <g id="text_8">
      <text style="font-size: 14px; font-family: 'Times New Roman'; text-anchor: middle" x="292.031242" y="256.42085" transform="rotate(-0 292.031242 256.42085)">16</text>
     </g>
    </g>
    <g id="xtick_9">
     <g id="line2d_9">
      <g>
       <use xlink:href="#m97ed392637" x="322.710821" y="240.6996" style="stroke: #000000; stroke-width: 1.1"/>
      </g>
     </g>
     <g id="text_9">
      <text style="font-size: 14px; font-family: 'Times New Roman'; text-anchor: middle" x="322.710821" y="256.42085" transform="rotate(-0 322.710821 256.42085)">18</text>
     </g>
    </g>
    <g id="xtick_10">
     <g id="line2d_10">
      <g>
       <use xlink:href="#m97ed392637" x="353.3904" y="240.6996" style="stroke: #000000; stroke-width: 1.1"/>
      </g>
     </g>
     <g id="text_10">
      <text style="font-size: 14px; font-family: 'Times New Roman'; text-anchor: middle" x="353.3904" y="256.42085" transform="rotate(-0 353.3904 256.42085)">20</text>
     </g>
    </g>
    <g id="text_11">
     <text style="font-size: 16px; font-family: 'Times New Roman'; text-anchor: middle" x="207.6624" y="272.495538" transform="rotate(-0 207.6624 272.495538)">Day</text>
    </g>
   </g>
   <g id="matplotlib.axis_2">
    <g id="ytick_1">
     <g id="line2d_11">
      <defs>
       <path id="mbee60381e0" d="M 0 0 
L -4 0 
" style="stroke: #000000; stroke-width: 1.1"/>
      </defs>
      <g>
       <use xlink:href="#mbee60381e0" x="61.9344" y="230.947405" style="stroke: #000000; stroke-width: 1.1"/>
      </g>
     </g>
     <g id="text_12">
      <text style="font-size: 14px; font-family: 'Times New Roman'; text-anchor: end" x="55.9344" y="235.80803" transform="rotate(-0 55.9344 235.80803)">0.001</text>
     </g>
    </g>
    <g id="ytick_2">
     <g id="line2d_12">
      <g>
       <use xlink:href="#mbee60381e0" x="61.9344" y="198.551315" style="stroke: #000000; stroke-width: 1.1"/>
      </g>
     </g>
     <g id="text_13">
      <text style="font-size: 14px; font-family: 'Times New Roman'; text-anchor: end" x="55.9344" y="203.41194" transform="rotate(-0 55.9344 203.41194)">0.01</text>
     </g>
    </g>
    <g id="ytick_3">
     <g id="line2d_13">
      <g>
       <use xlink:href="#mbee60381e0" x="61.9344" y="166.155224" style="stroke: #000000; stroke-width: 1.1"/>
      </g>
     </g>
     <g id="text_14">
      <text style="font-size: 14px; font-family: 'Times New Roman'; text-anchor: end" x="55.9344" y="171.015849" transform="rotate(-0 55.9344 171.015849)">0.1</text>
     </g>
    </g>
    <g id="ytick_4">
     <g id="line2d_14">
      <g>
       <use xlink:href="#mbee60381e0" x="61.9344" y="133.759134" style="stroke: #000000; stroke-width: 1.1"/>
      </g>
     </g>
     <g id="text_15">
      <text style="font-size: 14px; font-family: 'Times New Roman'; text-anchor: end" x="55.9344" y="138.619759" transform="rotate(-0 55.9344 138.619759)">1</text>
     </g>
    </g>
    <g id="ytick_5">
     <g id="line2d_15">
      <g>
       <use xlink:href="#mbee60381e0" x="61.9344" y="101.363044" style="stroke: #000000; stroke-width: 1.1"/>
      </g>
     </g>
     <g id="text_16">
      <text style="font-size: 14px; font-family: 'Times New Roman'; text-anchor: end" x="55.9344" y="106.223669" transform="rotate(-0 55.9344 106.223669)">10</text>
     </g>
    </g>
    <g id="ytick_6">
     <g id="line2d_16">
      <g>
       <use xlink:href="#mbee60381e0" x="61.9344" y="68.966954" style="stroke: #000000; stroke-width: 1.1"/>
      </g>
     </g>
     <g id="text_17">
      <text style="font-size: 14px; font-family: 'Times New Roman'; text-anchor: end" x="55.9344" y="73.827579" transform="rotate(-0 55.9344 73.827579)">100</text>
     </g>
    </g>
    <g id="ytick_7">
     <g id="line2d_17">
      <g>
       <use xlink:href="#mbee60381e0" x="61.9344" y="36.570863" style="stroke: #000000; stroke-width: 1.1"/>
      </g>
     </g>
     <g id="text_18">
      <text style="font-size: 14px; font-family: 'Times New Roman'; text-anchor: end" x="55.9344" y="41.431488" transform="rotate(-0 55.9344 41.431488)">1000</text>
     </g>
    </g>
    <g id="ytick_8">
     <g id="line2d_18">
      <defs>
       <path id="md57556c20f" d="M 0 0 
L -2 0 
" style="stroke: #000000; stroke-width: 0.6"/>
      </defs>
      <g>
       <use xlink:href="#md57556c20f" x="61.9344" y="240.6996" style="stroke: #000000; stroke-width: 0.6"/>
      </g>
     </g>
    </g>
    <g id="ytick_9">
     <g id="line2d_19">
      <g>
       <use xlink:href="#md57556c20f" x="61.9344" y="238.134437" style="stroke: #000000; stroke-width: 0.6"/>
      </g>
     </g>
    </g>
    <g id="ytick_10">
     <g id="line2d_20">
      <g>
       <use xlink:href="#md57556c20f" x="61.9344" y="235.965623" style="stroke: #000000; stroke-width: 0.6"/>
      </g>
     </g>
    </g>
    <g id="ytick_11">
     <g id="line2d_21">
      <g>
       <use xlink:href="#md57556c20f" x="61.9344" y="234.086911" style="stroke: #000000; stroke-width: 0.6"/>
      </g>
     </g>
    </g>
    <g id="ytick_12">
     <g id="line2d_22">
      <g>
       <use xlink:href="#md57556c20f" x="61.9344" y="232.429769" style="stroke: #000000; stroke-width: 0.6"/>
      </g>
     </g>
    </g>
    <g id="ytick_13">
     <g id="line2d_23">
      <g>
       <use xlink:href="#md57556c20f" x="61.9344" y="221.19521" style="stroke: #000000; stroke-width: 0.6"/>
      </g>
     </g>
    </g>
    <g id="ytick_14">
     <g id="line2d_24">
      <g>
       <use xlink:href="#md57556c20f" x="61.9344" y="215.490542" style="stroke: #000000; stroke-width: 0.6"/>
      </g>
     </g>
    </g>
    <g id="ytick_15">
     <g id="line2d_25">
      <g>
       <use xlink:href="#md57556c20f" x="61.9344" y="211.443015" style="stroke: #000000; stroke-width: 0.6"/>
      </g>
     </g>
    </g>
    <g id="ytick_16">
     <g id="line2d_26">
      <g>
       <use xlink:href="#md57556c20f" x="61.9344" y="208.30351" style="stroke: #000000; stroke-width: 0.6"/>
      </g>
     </g>
    </g>
    <g id="ytick_17">
     <g id="line2d_27">
      <g>
       <use xlink:href="#md57556c20f" x="61.9344" y="205.738347" style="stroke: #000000; stroke-width: 0.6"/>
      </g>
     </g>
    </g>
    <g id="ytick_18">
     <g id="line2d_28">
      <g>
       <use xlink:href="#md57556c20f" x="61.9344" y="203.569533" style="stroke: #000000; stroke-width: 0.6"/>
      </g>
     </g>
    </g>
    <g id="ytick_19">
     <g id="line2d_29">
      <g>
       <use xlink:href="#md57556c20f" x="61.9344" y="201.69082" style="stroke: #000000; stroke-width: 0.6"/>
      </g>
     </g>
    </g>
    <g id="ytick_20">
     <g id="line2d_30">
      <g>
       <use xlink:href="#md57556c20f" x="61.9344" y="200.033679" style="stroke: #000000; stroke-width: 0.6"/>
      </g>
     </g>
    </g>
    <g id="ytick_21">
     <g id="line2d_31">
      <g>
       <use xlink:href="#md57556c20f" x="61.9344" y="188.79912" style="stroke: #000000; stroke-width: 0.6"/>
      </g>
     </g>
    </g>
    <g id="ytick_22">
     <g id="line2d_32">
      <g>
       <use xlink:href="#md57556c20f" x="61.9344" y="183.094452" style="stroke: #000000; stroke-width: 0.6"/>
      </g>
     </g>
    </g>
    <g id="ytick_23">
     <g id="line2d_33">
      <g>
       <use xlink:href="#md57556c20f" x="61.9344" y="179.046925" style="stroke: #000000; stroke-width: 0.6"/>
      </g>
     </g>
    </g>
    <g id="ytick_24">
     <g id="line2d_34">
      <g>
       <use xlink:href="#md57556c20f" x="61.9344" y="175.907419" style="stroke: #000000; stroke-width: 0.6"/>
      </g>
     </g>
    </g>
    <g id="ytick_25">
     <g id="line2d_35">
      <g>
       <use xlink:href="#md57556c20f" x="61.9344" y="173.342257" style="stroke: #000000; stroke-width: 0.6"/>
      </g>
     </g>
    </g>
    <g id="ytick_26">
     <g id="line2d_36">
      <g>
       <use xlink:href="#md57556c20f" x="61.9344" y="171.173442" style="stroke: #000000; stroke-width: 0.6"/>
      </g>
     </g>
    </g>
    <g id="ytick_27">
     <g id="line2d_37">
      <g>
       <use xlink:href="#md57556c20f" x="61.9344" y="169.29473" style="stroke: #000000; stroke-width: 0.6"/>
      </g>
     </g>
    </g>
    <g id="ytick_28">
     <g id="line2d_38">
      <g>
       <use xlink:href="#md57556c20f" x="61.9344" y="167.637588" style="stroke: #000000; stroke-width: 0.6"/>
      </g>
     </g>
    </g>
    <g id="ytick_29">
     <g id="line2d_39">
      <g>
       <use xlink:href="#md57556c20f" x="61.9344" y="156.40303" style="stroke: #000000; stroke-width: 0.6"/>
      </g>
     </g>
    </g>
    <g id="ytick_30">
     <g id="line2d_40">
      <g>
       <use xlink:href="#md57556c20f" x="61.9344" y="150.698361" style="stroke: #000000; stroke-width: 0.6"/>
      </g>
     </g>
    </g>
    <g id="ytick_31">
     <g id="line2d_41">
      <g>
       <use xlink:href="#md57556c20f" x="61.9344" y="146.650835" style="stroke: #000000; stroke-width: 0.6"/>
      </g>
     </g>
    </g>
    <g id="ytick_32">
     <g id="line2d_42">
      <g>
       <use xlink:href="#md57556c20f" x="61.9344" y="143.511329" style="stroke: #000000; stroke-width: 0.6"/>
      </g>
     </g>
    </g>
    <g id="ytick_33">
     <g id="line2d_43">
      <g>
       <use xlink:href="#md57556c20f" x="61.9344" y="140.946166" style="stroke: #000000; stroke-width: 0.6"/>
      </g>
     </g>
    </g>
    <g id="ytick_34">
     <g id="line2d_44">
      <g>
       <use xlink:href="#md57556c20f" x="61.9344" y="138.777352" style="stroke: #000000; stroke-width: 0.6"/>
      </g>
     </g>
    </g>
    <g id="ytick_35">
     <g id="line2d_45">
      <g>
       <use xlink:href="#md57556c20f" x="61.9344" y="136.89864" style="stroke: #000000; stroke-width: 0.6"/>
      </g>
     </g>
    </g>
    <g id="ytick_36">
     <g id="line2d_46">
      <g>
       <use xlink:href="#md57556c20f" x="61.9344" y="135.241498" style="stroke: #000000; stroke-width: 0.6"/>
      </g>
     </g>
    </g>
    <g id="ytick_37">
     <g id="line2d_47">
      <g>
       <use xlink:href="#md57556c20f" x="61.9344" y="124.006939" style="stroke: #000000; stroke-width: 0.6"/>
      </g>
     </g>
    </g>
    <g id="ytick_38">
     <g id="line2d_48">
      <g>
       <use xlink:href="#md57556c20f" x="61.9344" y="118.302271" style="stroke: #000000; stroke-width: 0.6"/>
      </g>
     </g>
    </g>
    <g id="ytick_39">
     <g id="line2d_49">
      <g>
       <use xlink:href="#md57556c20f" x="61.9344" y="114.254744" style="stroke: #000000; stroke-width: 0.6"/>
      </g>
     </g>
    </g>
    <g id="ytick_40">
     <g id="line2d_50">
      <g>
       <use xlink:href="#md57556c20f" x="61.9344" y="111.115239" style="stroke: #000000; stroke-width: 0.6"/>
      </g>
     </g>
    </g>
    <g id="ytick_41">
     <g id="line2d_51">
      <g>
       <use xlink:href="#md57556c20f" x="61.9344" y="108.550076" style="stroke: #000000; stroke-width: 0.6"/>
      </g>
     </g>
    </g>
    <g id="ytick_42">
     <g id="line2d_52">
      <g>
       <use xlink:href="#md57556c20f" x="61.9344" y="106.381262" style="stroke: #000000; stroke-width: 0.6"/>
      </g>
     </g>
    </g>
    <g id="ytick_43">
     <g id="line2d_53">
      <g>
       <use xlink:href="#md57556c20f" x="61.9344" y="104.502549" style="stroke: #000000; stroke-width: 0.6"/>
      </g>
     </g>
    </g>
    <g id="ytick_44">
     <g id="line2d_54">
      <g>
       <use xlink:href="#md57556c20f" x="61.9344" y="102.845408" style="stroke: #000000; stroke-width: 0.6"/>
      </g>
     </g>
    </g>
    <g id="ytick_45">
     <g id="line2d_55">
      <g>
       <use xlink:href="#md57556c20f" x="61.9344" y="91.610849" style="stroke: #000000; stroke-width: 0.6"/>
      </g>
     </g>
    </g>
    <g id="ytick_46">
     <g id="line2d_56">
      <g>
       <use xlink:href="#md57556c20f" x="61.9344" y="85.906181" style="stroke: #000000; stroke-width: 0.6"/>
      </g>
     </g>
    </g>
    <g id="ytick_47">
     <g id="line2d_57">
      <g>
       <use xlink:href="#md57556c20f" x="61.9344" y="81.858654" style="stroke: #000000; stroke-width: 0.6"/>
      </g>
     </g>
    </g>
    <g id="ytick_48">
     <g id="line2d_58">
      <g>
       <use xlink:href="#md57556c20f" x="61.9344" y="78.719148" style="stroke: #000000; stroke-width: 0.6"/>
      </g>
     </g>
    </g>
    <g id="ytick_49">
     <g id="line2d_59">
      <g>
       <use xlink:href="#md57556c20f" x="61.9344" y="76.153986" style="stroke: #000000; stroke-width: 0.6"/>
      </g>
     </g>
    </g>
    <g id="ytick_50">
     <g id="line2d_60">
      <g>
       <use xlink:href="#md57556c20f" x="61.9344" y="73.985171" style="stroke: #000000; stroke-width: 0.6"/>
      </g>
     </g>
    </g>
    <g id="ytick_51">
     <g id="line2d_61">
      <g>
       <use xlink:href="#md57556c20f" x="61.9344" y="72.106459" style="stroke: #000000; stroke-width: 0.6"/>
      </g>
     </g>
    </g>
    <g id="ytick_52">
     <g id="line2d_62">
      <g>
       <use xlink:href="#md57556c20f" x="61.9344" y="70.449317" style="stroke: #000000; stroke-width: 0.6"/>
      </g>
     </g>
    </g>
    <g id="ytick_53">
     <g id="line2d_63">
      <g>
       <use xlink:href="#md57556c20f" x="61.9344" y="59.214759" style="stroke: #000000; stroke-width: 0.6"/>
      </g>
     </g>
    </g>
    <g id="ytick_54">
     <g id="line2d_64">
      <g>
       <use xlink:href="#md57556c20f" x="61.9344" y="53.51009" style="stroke: #000000; stroke-width: 0.6"/>
      </g>
     </g>
    </g>
    <g id="ytick_55">
     <g id="line2d_65">
      <g>
       <use xlink:href="#md57556c20f" x="61.9344" y="49.462564" style="stroke: #000000; stroke-width: 0.6"/>
      </g>
     </g>
    </g>
    <g id="ytick_56">
     <g id="line2d_66">
      <g>
       <use xlink:href="#md57556c20f" x="61.9344" y="46.323058" style="stroke: #000000; stroke-width: 0.6"/>
      </g>
     </g>
    </g>
    <g id="ytick_57">
     <g id="line2d_67">
      <g>
       <use xlink:href="#md57556c20f" x="61.9344" y="43.757895" style="stroke: #000000; stroke-width: 0.6"/>
      </g>
     </g>
    </g>
    <g id="ytick_58">
     <g id="line2d_68">
      <g>
       <use xlink:href="#md57556c20f" x="61.9344" y="41.589081" style="stroke: #000000; stroke-width: 0.6"/>
      </g>
     </g>
    </g>
    <g id="ytick_59">
     <g id="line2d_69">
      <g>
       <use xlink:href="#md57556c20f" x="61.9344" y="39.710369" style="stroke: #000000; stroke-width: 0.6"/>
      </g>
     </g>
    </g>
    <g id="ytick_60">
     <g id="line2d_70">
      <g>
       <use xlink:href="#md57556c20f" x="61.9344" y="38.053227" style="stroke: #000000; stroke-width: 0.6"/>
      </g>
     </g>
    </g>
    <g id="ytick_61">
     <g id="line2d_71">
      <g>
       <use xlink:href="#md57556c20f" x="61.9344" y="26.818668" style="stroke: #000000; stroke-width: 0.6"/>
      </g>
     </g>
    </g>
    <g id="ytick_62">
     <g id="line2d_72">
      <g>
       <use xlink:href="#md57556c20f" x="61.9344" y="21.114" style="stroke: #000000; stroke-width: 0.6"/>
      </g>
     </g>
    </g>
    <g id="text_19">
     <text style="font-size: 16px; font-family: 'Times New Roman'; text-anchor: middle" x="19.0119" y="130.9068" transform="rotate(-90 19.0119 130.9068)">Survival (%)</text>
    </g>
   </g>
   <g id="line2d_73">
    <path d="M 61.9344 172.032526 
L 77.274189 152.867175 
L 92.613979 205.850455 
L 107.953768 138.274127 
L 123.293558 150.399 
L 138.633347 194.637149 
L 153.973137 103.200797 
L 169.312926 170.951872 
L 184.652716 140.167421 
L 199.992505 121.183614 
L 215.332295 131.490181 
L 230.672084 151.715873 
L 246.011874 127.940543 
L 261.351663 126.903163 
L 276.691453 126.640901 
L 292.031242 134.729825 
L 307.371032 112.004131 
L 322.710821 135.416276 
L 338.050611 118.988721 
L 353.3904 135.637847 
" clip-path="url(#pcf6f34c436)" style="fill: none; stroke: #808080; stroke-opacity: 0.5; stroke-width: 1.6; stroke-linecap: square"/>
   </g>
   <g id="line2d_74">
    <path d="M 61.9344 149.572205 
L 77.274189 179.701436 
L 92.613979 208.928921 
L 107.953768 138.493111 
L 123.293558 148.375781 
L 138.633347 150.020184 
L 153.973137 132.879508 
L 169.312926 100.455023 
L 184.652716 193.533097 
L 199.992505 108.946425 
L 215.332295 134.384546 
L 230.672084 99.13692 
L 246.011874 74.671622 
L 261.351663 82.493473 
L 276.691453 72.594466 
L 292.031242 76.840436 
L 307.371032 70.765498 
L 322.710821 78.719148 
L 338.050611 80.597861 
L 353.3904 74.893193 
" clip-path="url(#pcf6f34c436)" style="fill: none; stroke: #808080; stroke-opacity: 0.5; stroke-width: 1.6; stroke-linecap: square"/>
   </g>
   <g id="line2d_75">
    <path d="M 61.9344 152.541856 
L 77.274189 167.998719 
L 92.613979 169.128226 
L 107.953768 145.168471 
L 123.293558 135.927948 
L 138.633347 174.734287 
L 153.973137 174.734287 
L 169.312926 163.084518 
L 184.652716 137.177252 
L 199.992505 133.759134 
L 215.332295 126.088093 
L 230.672084 143.296524 
L 246.011874 134.012645 
L 261.351663 105.41057 
L 276.691453 106.634772 
L 292.031242 128.934092 
L 307.371032 100.053313 
L 322.710821 115.036581 
L 338.050611 91.610849 
L 353.3904 108.662184 
" clip-path="url(#pcf6f34c436)" style="fill: none; stroke: #808080; stroke-opacity: 0.5; stroke-width: 1.6; stroke-linecap: square"/>
   </g>
   <g id="line2d_76">
    <path d="M 61.9344 173.89407 
L 77.274189 132.418173 
L 92.613979 178.858071 
L 107.953768 202.01427 
L 123.293558 144.136741 
L 138.633347 109.496277 
L 153.973137 141.407501 
L 169.312926 102.748041 
L 184.652716 136.404924 
L 199.992505 142.103211 
L 215.332295 132.27677 
L 230.672084 130.22328 
L 246.011874 94.883715 
L 261.351663 121.085569 
L 276.691453 106.307016 
L 292.031242 126.29349 
L 307.371032 102.927927 
L 322.710821 192.69617 
L 338.050611 82.493473 
L 353.3904 103.284586 
" clip-path="url(#pcf6f34c436)" style="fill: none; stroke: #808080; stroke-opacity: 0.5; stroke-width: 1.6; stroke-linecap: square"/>
   </g>
   <g id="line2d_77">
    <path d="M 61.9344 167.025777 
L 77.274189 177.995606 
L 92.613979 135.19116 
L 107.953768 175.56838 
L 123.293558 135.577071 
L 138.633347 167.044116 
L 153.973137 136.680504 
L 169.312926 153.649012 
L 184.652716 142.287127 
L 199.992505 122.94459 
L 215.332295 117.176115 
L 230.672084 104.367913 
L 246.011874 131.24504 
L 261.351663 79.572103 
L 276.691453 76.012583 
L 292.031242 76.432598 
L 307.371032 63.467682 
L 322.710821 79.62717 
L 338.050611 77.99748 
L 353.3904 72.69103 
" clip-path="url(#pcf6f34c436)" style="fill: none; stroke: #808080; stroke-opacity: 0.5; stroke-width: 1.6; stroke-linecap: square"/>
   </g>
   <g id="line2d_78">
    <path d="M 61.9344 141.224778 
L 77.274189 141.786383 
L 92.613979 202.32564 
L 107.953768 180.704067 
L 123.293558 187.458159 
L 138.633347 129.884241 
L 153.973137 181.612088 
L 169.312926 105.41057 
L 184.652716 133.759134 
L 199.992505 128.054466 
L 215.332295 132.418173 
L 230.672084 127.634451 
L 246.011874 136.680504 
L 261.351663 124.558753 
L 276.691453 191.085671 
L 292.031242 108.828688 
L 307.371032 102.704005 
L 322.710821 105.757982 
L 338.050611 81.858654 
L 353.3904 74.422599 
" clip-path="url(#pcf6f34c436)" style="fill: none; stroke: #808080; stroke-opacity: 0.5; stroke-width: 1.6; stroke-linecap: square"/>
   </g>
   <g id="line2d_79">
    <path d="M 61.9344 181.612088 
L 77.274189 137.981439 
L 92.613979 170.635691 
L 107.953768 163.590062 
L 123.293558 134.697445 
L 138.633347 161.882582 
L 153.973137 109.799379 
L 169.312926 101.738251 
L 184.652716 143.034353 
L 199.992505 132.327108 
L 215.332295 129.711608 
L 230.672084 126.572102 
L 246.011874 137.9068 
L 261.351663 121.183614 
L 276.691453 122.349798 
L 292.031242 167.125916 
L 307.371032 98.46682 
L 322.710821 117.239922 
L 338.050611 104.502549 
L 353.3904 106.536727 
" clip-path="url(#pcf6f34c436)" style="fill: none; stroke: #808080; stroke-opacity: 0.5; stroke-width: 1.6; stroke-linecap: square"/>
   </g>
   <g id="line2d_80">
    <path d="M 61.9344 175.58397 
L 77.274189 208.764844 
L 92.613979 129.180622 
L 107.953768 196.133477 
L 123.293558 203.965881 
L 138.633347 132.479212 
L 153.973137 133.759134 
L 169.312926 119.526473 
L 184.652716 100.510089 
L 199.992505 96.344826 
L 215.332295 117.541575 
L 230.672084 90.513973 
L 246.011874 67.961566 
L 261.351663 105.41057 
L 276.691453 129.278667 
L 292.031242 87.994367 
L 307.371032 71.532116 
L 322.710821 95.302168 
L 338.050611 73.818667 
L 353.3904 99.780541 
" clip-path="url(#pcf6f34c436)" style="fill: none; stroke: #808080; stroke-opacity: 0.5; stroke-width: 1.6; stroke-linecap: square"/>
   </g>
   <g id="line2d_81">
    <path d="M 61.9344 159.861791 
L 77.274189 207.499323 
L 92.613979 137.724623 
L 107.953768 190.784017 
L 123.293558 195.32133 
L 138.633347 179.733375 
L 153.973137 134.037746 
L 169.312926 100.977556 
L 184.652716 124.91496 
L 199.992505 124.581282 
L 215.332295 158.753388 
L 230.672084 128.562443 
L 246.011874 134.776646 
L 261.351663 104.75606 
L 276.691453 89.903369 
L 292.031242 87.500652 
L 307.371032 87.032337 
L 322.710821 89.5975 
L 338.050611 88.115136 
L 353.3904 78.719148 
" clip-path="url(#pcf6f34c436)" style="fill: none; stroke: #808080; stroke-opacity: 0.5; stroke-width: 1.6; stroke-linecap: square"/>
   </g>
   <g id="line2d_82">
    <path d="M 61.9344 152.269974 
L 77.274189 155.786751 
L 92.613979 199.340462 
L 107.953768 158.369402 
L 123.293558 146.217895 
L 138.633347 140.118313 
L 153.973137 160.030542 
L 169.312926 134.462753 
L 184.652716 105.984913 
L 199.992505 113.680402 
L 215.332295 114.508255 
L 230.672084 104.849961 
L 246.011874 105.806919 
L 261.351663 72.502808 
L 276.691453 66.982056 
L 292.031242 74.275273 
L 307.371032 61.697402 
L 322.710821 81.640519 
L 338.050611 73.508195 
L 353.3904 77.811127 
" clip-path="url(#pcf6f34c436)" style="fill: none; stroke: #808080; stroke-opacity: 0.5; stroke-width: 1.6; stroke-linecap: square"/>
   </g>
   <g id="line2d_83">
    <path d="M 61.9344 157.101478 
L 77.274189 150.460298 
L 92.613979 149.510504 
L 107.953768 154.424611 
L 123.293558 145.752073 
L 138.633347 134.767676 
L 153.973137 124.768661 
L 169.312926 110.731157 
L 184.652716 121.427706 
L 199.992505 116.146811 
L 215.332295 125.555558 
L 230.672084 109.533558 
L 246.011874 91.374218 
L 261.351663 92.011427 
L 276.691453 86.151067 
L 292.031242 88.629599 
L 307.371032 77.112315 
L 322.710821 92.243809 
L 338.050611 82.790626 
L 353.3904 83.849402 
" clip-path="url(#pcf6f34c436)" style="fill: none; stroke: #228b22; stroke-width: 3; stroke-linecap: square"/>
   </g>
   <g id="patch_3">
    <path d="M 61.9344 240.6996 
L 61.9344 21.114 
" style="fill: none; stroke: #000000; stroke-width: 1.1; stroke-linejoin: miter; stroke-linecap: square"/>
   </g>
   <g id="patch_4">
    <path d="M 61.9344 240.6996 
L 353.3904 240.6996 
" style="fill: none; stroke: #000000; stroke-width: 1.1; stroke-linejoin: miter; stroke-linecap: square"/>
   </g>
   <g id="text_20">
    <text style="font-size: 16px; font-family: 'Times New Roman'; text-anchor: middle" x="207.6624" y="16.114" transform="rotate(-0 207.6624 16.114)">Evolution to Cefepime</text>
   </g>
  </g>
 </g>
 <defs>
  <clipPath id="pcf6f34c436">
   <rect x="61.9344" y="21.114" width="291.456" height="219.5856"/>
  </clipPath>
 </defs>
</svg>
