<?xml version="1.0" encoding="utf-8" standalone="no"?>
<!DOCTYPE svg PUBLIC "-//W3C//DTD SVG 1.1//EN"
  "http://www.w3.org/Graphics/SVG/1.1/DTD/svg11.dtd">
<svg xmlns:xlink="http://www.w3.org/1999/xlink" width="920.3625pt" height="718.653052pt" viewBox="0 0 920.3625 718.653052" xmlns="http://www.w3.org/2000/svg" version="1.1">
 <metadata>
  <rdf:RDF xmlns:dc="http://purl.org/dc/elements/1.1/" xmlns:cc="http://creativecommons.org/ns#" xmlns:rdf="http://www.w3.org/1999/02/22-rdf-syntax-ns#">
   <cc:Work>
    <dc:type rdf:resource="http://purl.org/dc/dcmitype/StillImage"/>
    <dc:date>2026-09-17T10:36:16.317710</dc:date>
    <dc:format>image/svg+xml</dc:format>
    <dc:creator>
     <cc:Agent>
      <dc:title>Matplotlib v3.10.8, https://matplotlib.org/</dc:title>
     </cc:Agent>
    </dc:creator>
   </cc:Work>
  </rdf:RDF>
 </metadata>
 <defs>
  <style type="text/css">*{stroke-linejoin: round; stroke-linecap: butt}</style>
 </defs>
 <g id="figure_1">
  <g id="patch_1">
   <path d="M 0 718.653052 
L 920.3625 718.653052 
L 920.3625 0 
L 0 0 
z
" style="fill: #ffffff"/>
  </g>
  <g id="axes_1">
   <g id="patch_2">
    <path d="M 157.1625 592.392734 
L 913.1625 592.392734 
L 913.1625 23.592734 
L 157.1625 23.592734 
z
" style="fill: #ffffff"/>
   </g>
   <g id="matplotlib.axis_1">
    <g id="xtick_1">
     <g id="line2d_1">
      <defs>
       <path id="mc76c2ea015" d="M 0 0 
L 0 12 
" style="stroke: #000000; stroke-width: 3"/>
      </defs>
      <g>
       <use xlink:href="#mc76c2ea015" x="220.1625" y="592.392734" style="stroke: #000000; stroke-width: 3"/>
      </g>
     </g>
     <g id="text_1">
      <text style="font-size: 37px; font-family: 'Times New Roman'" transform="translate(205.368169 668.218776) rotate(-45)">MG</text>
     </g>
    </g>
    <g id="xtick_2">
     <g id="line2d_2">
      <g>
       <use xlink:href="#mc76c2ea015" x="310.1625" y="592.392734" style="stroke: #000000; stroke-width: 3"/>
      </g>
     </g>
     <g id="text_2">
      <!-- MG$^{\mathrm{gatA}}$ -->
      <g transform="translate(277.072499 704.810116) rotate(-45)">
       <text>
        <tspan x="0" y="-0.292188" style="font-size: 37px; font-family: 'Times New Roman'">M</tspan>
        <tspan x="32.898926" y="-0.292188" style="font-size: 37px; font-family: 'Times New Roman'">G</tspan>
        <tspan x="59.973242" y="-14.45625" style="font-size: 25.9px; font-family: 'Times New Roman'">g</tspan>
        <tspan x="72.923242" y="-14.45625" style="font-size: 25.9px; font-family: 'Times New Roman'">a</tspan>
        <tspan x="84.418896" y="-14.45625" style="font-size: 25.9px; font-family: 'Times New Roman'">t</tspan>
        <tspan x="91.614746" y="-14.45625" style="font-size: 25.9px; font-family: 'Times New Roman'">A</tspan>
       </text>
      </g>
     </g>
    </g>
    <g id="xtick_3">
     <g id="line2d_3">
      <g>
       <use xlink:href="#mc76c2ea015" x="400.1625" y="592.392734" style="stroke: #000000; stroke-width: 3"/>
      </g>
     </g>
     <g id="text_3">
      <!-- MG$^{\mathrm{glvC}}$ -->
      <g transform="translate(367.072499 704.810116) rotate(-45)">
       <text>
        <tspan x="0" y="-0.854688" style="font-size: 37px; font-family: 'Times New Roman'">M</tspan>
        <tspan x="32.898926" y="-0.854688" style="font-size: 37px; font-family: 'Times New Roman'">G</tspan>
        <tspan x="59.973242" y="-15.01875" style="font-size: 25.9px; font-family: 'Times New Roman'">g</tspan>
        <tspan x="72.923242" y="-15.01875" style="font-size: 25.9px; font-family: 'Times New Roman'">l</tspan>
        <tspan x="80.119092" y="-15.01875" style="font-size: 25.9px; font-family: 'Times New Roman'">v</tspan>
        <tspan x="93.069092" y="-15.01875" style="font-size: 25.9px; font-family: 'Times New Roman'">C</tspan>
       </text>
      </g>
     </g>
    </g>
    <g id="xtick_4">
     <g id="line2d_4">
      <g>
       <use xlink:href="#mc76c2ea015" x="490.1625" y="592.392734" style="stroke: #000000; stroke-width: 3"/>
      </g>
     </g>
     <g id="text_4">
      <!-- MG$^{\mathrm{hipA}}$ -->
      <g transform="translate(456.54924 705.856634) rotate(-45)">
       <text>
        <tspan x="0" y="-0.854688" style="font-size: 37px; font-family: 'Times New Roman'">M</tspan>
        <tspan x="32.898926" y="-0.854688" style="font-size: 37px; font-family: 'Times New Roman'">G</tspan>
        <tspan x="59.973242" y="-15.01875" style="font-size: 25.9px; font-family: 'Times New Roman'">h</tspan>
        <tspan x="72.923242" y="-15.01875" style="font-size: 25.9px; font-family: 'Times New Roman'">i</tspan>
        <tspan x="80.119092" y="-15.01875" style="font-size: 25.9px; font-family: 'Times New Roman'">p</tspan>
        <tspan x="93.069092" y="-15.01875" style="font-size: 25.9px; font-family: 'Times New Roman'">A</tspan>
       </text>
      </g>
     </g>
    </g>
    <g id="xtick_5">
     <g id="line2d_5">
      <g>
       <use xlink:href="#mc76c2ea015" x="580.1625" y="592.392734" style="stroke: #000000; stroke-width: 3"/>
      </g>
     </g>
     <g id="text_5">
      <!-- MG$^{\mathrm{selB}}$ -->
      <g transform="translate(548.511461 701.932191) rotate(-45)">
       <text>
        <tspan x="0" y="-0.854688" style="font-size: 37px; font-family: 'Times New Roman'">M</tspan>
        <tspan x="32.898926" y="-0.854688" style="font-size: 37px; font-family: 'Times New Roman'">G</tspan>
        <tspan x="59.973242" y="-15.01875" style="font-size: 25.9px; font-family: 'Times New Roman'">s</tspan>
        <tspan x="70.05249" y="-15.01875" style="font-size: 25.9px; font-family: 'Times New Roman'">e</tspan>
        <tspan x="81.548145" y="-15.01875" style="font-size: 25.9px; font-family: 'Times New Roman'">l</tspan>
        <tspan x="88.743994" y="-15.01875" style="font-size: 25.9px; font-family: 'Times New Roman'">B</tspan>
       </text>
      </g>
     </g>
    </g>
    <g id="xtick_6">
     <g id="line2d_6">
      <g>
       <use xlink:href="#mc76c2ea015" x="670.1625" y="592.392734" style="stroke: #000000; stroke-width: 3"/>
      </g>
     </g>
     <g id="text_6">
      <!-- MG$^{\mathrm{rpoZ}}$ -->
      <g transform="translate(637.072499 704.810116) rotate(-45)">
       <text>
        <tspan x="0" y="-0.685938" style="font-size: 37px; font-family: 'Times New Roman'">M</tspan>
        <tspan x="32.898926" y="-0.685938" style="font-size: 37px; font-family: 'Times New Roman'">G</tspan>
        <tspan x="59.973242" y="-14.85" style="font-size: 25.9px; font-family: 'Times New Roman'">r</tspan>
        <tspan x="68.598145" y="-14.85" style="font-size: 25.9px; font-family: 'Times New Roman'">p</tspan>
        <tspan x="81.548145" y="-14.85" style="font-size: 25.9px; font-family: 'Times New Roman'">o</tspan>
        <tspan x="94.498145" y="-14.85" style="font-size: 25.9px; font-family: 'Times New Roman'">Z</tspan>
       </text>
      </g>
     </g>
    </g>
    <g id="xtick_7">
     <g id="line2d_7">
      <g>
       <use xlink:href="#mc76c2ea015" x="760.1625" y="592.392734" style="stroke: #000000; stroke-width: 3"/>
      </g>
     </g>
     <g id="text_7">
      <!-- MG$^{\mathrm{ftsH}}$ -->
      <g transform="translate(729.03472 700.885673) rotate(-45)">
       <text>
        <tspan x="0" y="-0.876563" style="font-size: 37px; font-family: 'Times New Roman'">M</tspan>
        <tspan x="32.898926" y="-0.876563" style="font-size: 37px; font-family: 'Times New Roman'">G</tspan>
        <tspan x="59.973242" y="-15.040625" style="font-size: 25.9px; font-family: 'Times New Roman'">f</tspan>
        <tspan x="68.598145" y="-15.040625" style="font-size: 25.9px; font-family: 'Times New Roman'">t</tspan>
        <tspan x="75.793994" y="-15.040625" style="font-size: 25.9px; font-family: 'Times New Roman'">s</tspan>
        <tspan x="85.873242" y="-15.040625" style="font-size: 25.9px; font-family: 'Times New Roman'">H</tspan>
       </text>
      </g>
     </g>
    </g>
    <g id="xtick_8">
     <g id="line2d_8">
      <g>
       <use xlink:href="#mc76c2ea015" x="850.1625" y="592.392734" style="stroke: #000000; stroke-width: 3"/>
      </g>
     </g>
     <g id="text_8">
      <!-- MG$^{\mathrm{fimE}}$ -->
      <g transform="translate(816.54924 705.856634) rotate(-45)">
       <text>
        <tspan x="0" y="-0.854688" style="font-size: 37px; font-family: 'Times New Roman'">M</tspan>
        <tspan x="32.898926" y="-0.854688" style="font-size: 37px; font-family: 'Times New Roman'">G</tspan>
        <tspan x="59.973242" y="-15.01875" style="font-size: 25.9px; font-family: 'Times New Roman'">f</tspan>
        <tspan x="68.598145" y="-15.01875" style="font-size: 25.9px; font-family: 'Times New Roman'">i</tspan>
        <tspan x="75.793994" y="-15.01875" style="font-size: 25.9px; font-family: 'Times New Roman'">m</tspan>
        <tspan x="95.939844" y="-15.01875" style="font-size: 25.9px; font-family: 'Times New Roman'">E</tspan>
       </text>
      </g>
     </g>
    </g>
   </g>
   <g id="matplotlib.axis_2">
    <g id="ytick_1">
     <g id="line2d_9">
      <defs>
       <path id="mb6d37d3453" d="M 0 0 
L -12 0 
" style="stroke: #000000; stroke-width: 3"/>
      </defs>
      <g>
       <use xlink:href="#mb6d37d3453" x="157.1625" y="592.392734" style="stroke: #000000; stroke-width: 3"/>
      </g>
     </g>
     <g id="text_9">
      <!-- $\mathdefault{10^{1}}$ -->
      <g transform="translate(89.4925 608.785469)">
       <text>
        <tspan x="0" y="-0.258375" style="font-size: 37px; font-family: 'Times New Roman'">1</tspan>
        <tspan x="18.5" y="-0.258375" style="font-size: 37px; font-family: 'Times New Roman'">0</tspan>
        <tspan x="37.556041" y="-22.5" style="font-size: 25.9px; font-family: 'Times New Roman'">1</tspan>
       </text>
      </g>
     </g>
    </g>
    <g id="ytick_2">
     <g id="line2d_10">
      <g>
       <use xlink:href="#mb6d37d3453" x="157.1625" y="307.992734" style="stroke: #000000; stroke-width: 3"/>
      </g>
     </g>
     <g id="text_10">
      <!-- $\mathdefault{10^{2}}$ -->
      <g transform="translate(89.4925 324.385469)">
       <text>
        <tspan x="0" y="-0.258375" style="font-size: 37px; font-family: 'Times New Roman'">1</tspan>
        <tspan x="18.5" y="-0.258375" style="font-size: 37px; font-family: 'Times New Roman'">0</tspan>
        <tspan x="37.556041" y="-22.5" style="font-size: 25.9px; font-family: 'Times New Roman'">2</tspan>
       </text>
      </g>
     </g>
    </g>
    <g id="ytick_3">
     <g id="line2d_11">
      <g>
       <use xlink:href="#mb6d37d3453" x="157.1625" y="23.592734" style="stroke: #000000; stroke-width: 3"/>
      </g>
     </g>
     <g id="text_11">
      <!-- $\mathdefault{10^{3}}$ -->
      <g transform="translate(89.4925 39.985469)">
       <text>
        <tspan x="0" y="-0.258375" style="font-size: 37px; font-family: 'Times New Roman'">1</tspan>
        <tspan x="18.5" y="-0.258375" style="font-size: 37px; font-family: 'Times New Roman'">0</tspan>
        <tspan x="37.556041" y="-22.5" style="font-size: 25.9px; font-family: 'Times New Roman'">3</tspan>
       </text>
      </g>
     </g>
    </g>
    <g id="ytick_4">
     <g id="line2d_12">
      <defs>
       <path id="m7d4192c52a" d="M 0 0 
L -8 0 
" style="stroke: #000000; stroke-width: 2"/>
      </defs>
      <g>
       <use xlink:href="#m7d4192c52a" x="157.1625" y="506.779804" style="stroke: #000000; stroke-width: 2"/>
      </g>
     </g>
    </g>
    <g id="ytick_5">
     <g id="line2d_13">
      <g>
       <use xlink:href="#m7d4192c52a" x="157.1625" y="456.69945" style="stroke: #000000; stroke-width: 2"/>
      </g>
     </g>
    </g>
    <g id="ytick_6">
     <g id="line2d_14">
      <g>
       <use xlink:href="#m7d4192c52a" x="157.1625" y="421.166873" style="stroke: #000000; stroke-width: 2"/>
      </g>
     </g>
    </g>
    <g id="ytick_7">
     <g id="line2d_15">
      <g>
       <use xlink:href="#m7d4192c52a" x="157.1625" y="393.605665" style="stroke: #000000; stroke-width: 2"/>
      </g>
     </g>
    </g>
    <g id="ytick_8">
     <g id="line2d_16">
      <g>
       <use xlink:href="#m7d4192c52a" x="157.1625" y="371.086519" style="stroke: #000000; stroke-width: 2"/>
      </g>
     </g>
    </g>
    <g id="ytick_9">
     <g id="line2d_17">
      <g>
       <use xlink:href="#m7d4192c52a" x="157.1625" y="352.046852" style="stroke: #000000; stroke-width: 2"/>
      </g>
     </g>
    </g>
    <g id="ytick_10">
     <g id="line2d_18">
      <g>
       <use xlink:href="#m7d4192c52a" x="157.1625" y="335.553942" style="stroke: #000000; stroke-width: 2"/>
      </g>
     </g>
    </g>
    <g id="ytick_11">
     <g id="line2d_19">
      <g>
       <use xlink:href="#m7d4192c52a" x="157.1625" y="321.006165" style="stroke: #000000; stroke-width: 2"/>
      </g>
     </g>
    </g>
    <g id="ytick_12">
     <g id="line2d_20">
      <g>
       <use xlink:href="#m7d4192c52a" x="157.1625" y="506.779804" style="stroke: #000000; stroke-width: 2"/>
      </g>
     </g>
    </g>
    <g id="ytick_13">
     <g id="line2d_21">
      <g>
       <use xlink:href="#m7d4192c52a" x="157.1625" y="456.69945" style="stroke: #000000; stroke-width: 2"/>
      </g>
     </g>
    </g>
    <g id="ytick_14">
     <g id="line2d_22">
      <g>
       <use xlink:href="#m7d4192c52a" x="157.1625" y="421.166873" style="stroke: #000000; stroke-width: 2"/>
      </g>
     </g>
    </g>
    <g id="ytick_15">
     <g id="line2d_23">
      <g>
       <use xlink:href="#m7d4192c52a" x="157.1625" y="393.605665" style="stroke: #000000; stroke-width: 2"/>
      </g>
     </g>
    </g>
    <g id="ytick_16">
     <g id="line2d_24">
      <g>
       <use xlink:href="#m7d4192c52a" x="157.1625" y="371.086519" style="stroke: #000000; stroke-width: 2"/>
      </g>
     </g>
    </g>
    <g id="ytick_17">
     <g id="line2d_25">
      <g>
       <use xlink:href="#m7d4192c52a" x="157.1625" y="352.046852" style="stroke: #000000; stroke-width: 2"/>
      </g>
     </g>
    </g>
    <g id="ytick_18">
     <g id="line2d_26">
      <g>
       <use xlink:href="#m7d4192c52a" x="157.1625" y="335.553942" style="stroke: #000000; stroke-width: 2"/>
      </g>
     </g>
    </g>
    <g id="ytick_19">
     <g id="line2d_27">
      <g>
       <use xlink:href="#m7d4192c52a" x="157.1625" y="321.006165" style="stroke: #000000; stroke-width: 2"/>
      </g>
     </g>
    </g>
    <g id="ytick_20">
     <g id="line2d_28">
      <g>
       <use xlink:href="#m7d4192c52a" x="157.1625" y="222.379804" style="stroke: #000000; stroke-width: 2"/>
      </g>
     </g>
    </g>
    <g id="ytick_21">
     <g id="line2d_29">
      <g>
       <use xlink:href="#m7d4192c52a" x="157.1625" y="172.29945" style="stroke: #000000; stroke-width: 2"/>
      </g>
     </g>
    </g>
    <g id="ytick_22">
     <g id="line2d_30">
      <g>
       <use xlink:href="#m7d4192c52a" x="157.1625" y="136.766873" style="stroke: #000000; stroke-width: 2"/>
      </g>
     </g>
    </g>
    <g id="ytick_23">
     <g id="line2d_31">
      <g>
       <use xlink:href="#m7d4192c52a" x="157.1625" y="109.205665" style="stroke: #000000; stroke-width: 2"/>
      </g>
     </g>
    </g>
    <g id="ytick_24">
     <g id="line2d_32">
      <g>
       <use xlink:href="#m7d4192c52a" x="157.1625" y="86.686519" style="stroke: #000000; stroke-width: 2"/>
      </g>
     </g>
    </g>
    <g id="ytick_25">
     <g id="line2d_33">
      <g>
       <use xlink:href="#m7d4192c52a" x="157.1625" y="67.646852" style="stroke: #000000; stroke-width: 2"/>
      </g>
     </g>
    </g>
    <g id="ytick_26">
     <g id="line2d_34">
      <g>
       <use xlink:href="#m7d4192c52a" x="157.1625" y="51.153942" style="stroke: #000000; stroke-width: 2"/>
      </g>
     </g>
    </g>
    <g id="ytick_27">
     <g id="line2d_35">
      <g>
       <use xlink:href="#m7d4192c52a" x="157.1625" y="36.606165" style="stroke: #000000; stroke-width: 2"/>
      </g>
     </g>
    </g>
    <g id="ytick_28">
     <g id="line2d_36">
      <g>
       <use xlink:href="#m7d4192c52a" x="157.1625" y="222.379804" style="stroke: #000000; stroke-width: 2"/>
      </g>
     </g>
    </g>
    <g id="ytick_29">
     <g id="line2d_37">
      <g>
       <use xlink:href="#m7d4192c52a" x="157.1625" y="172.29945" style="stroke: #000000; stroke-width: 2"/>
      </g>
     </g>
    </g>
    <g id="ytick_30">
     <g id="line2d_38">
      <g>
       <use xlink:href="#m7d4192c52a" x="157.1625" y="136.766873" style="stroke: #000000; stroke-width: 2"/>
      </g>
     </g>
    </g>
    <g id="ytick_31">
     <g id="line2d_39">
      <g>
       <use xlink:href="#m7d4192c52a" x="157.1625" y="109.205665" style="stroke: #000000; stroke-width: 2"/>
      </g>
     </g>
    </g>
    <g id="ytick_32">
     <g id="line2d_40">
      <g>
       <use xlink:href="#m7d4192c52a" x="157.1625" y="86.686519" style="stroke: #000000; stroke-width: 2"/>
      </g>
     </g>
    </g>
    <g id="ytick_33">
     <g id="line2d_41">
      <g>
       <use xlink:href="#m7d4192c52a" x="157.1625" y="67.646852" style="stroke: #000000; stroke-width: 2"/>
      </g>
     </g>
    </g>
    <g id="ytick_34">
     <g id="line2d_42">
      <g>
       <use xlink:href="#m7d4192c52a" x="157.1625" y="51.153942" style="stroke: #000000; stroke-width: 2"/>
      </g>
     </g>
    </g>
    <g id="ytick_35">
     <g id="line2d_43">
      <g>
       <use xlink:href="#m7d4192c52a" x="157.1625" y="36.606165" style="stroke: #000000; stroke-width: 2"/>
      </g>
     </g>
    </g>
    <g id="text_12">
     <text style="font-size: 40px; font-family: 'Times New Roman'" transform="translate(34.975 386.861484) rotate(-90)">Amikacin</text>
     <text style="font-size: 40px; font-family: 'Times New Roman'" transform="translate(76.86125 418.145859) rotate(-90)">MIC (μg/mL)</text>
    </g>
   </g>
   <g id="patch_3">
    <path d="M 157.1625 592.392734 
L 157.1625 23.592734 
" style="fill: none; stroke: #000000; stroke-width: 4; stroke-linejoin: miter; stroke-linecap: square"/>
   </g>
   <g id="patch_4">
    <path d="M 913.1625 592.392734 
L 913.1625 23.592734 
" style="fill: none; stroke: #000000; stroke-width: 4; stroke-linejoin: miter; stroke-linecap: square"/>
   </g>
   <g id="patch_5">
    <path d="M 157.1625 592.392734 
L 913.1625 592.392734 
" style="fill: none; stroke: #000000; stroke-width: 4; stroke-linejoin: miter; stroke-linecap: square"/>
   </g>
   <g id="patch_6">
    <path d="M 157.1625 23.592734 
L 913.1625 23.592734 
" style="fill: none; stroke: #000000; stroke-width: 4; stroke-linejoin: miter; stroke-linecap: square"/>
   </g>
   <g id="LineCollection_1">
    <path d="M 182.3625 378.78658 
L 257.9625 378.78658 
" clip-path="url(#p44c4d6bca2)" style="fill: none; stroke: #000000; stroke-width: 4"/>
   </g>
   <g id="LineCollection_2">
    <path d="M 272.3625 435.624882 
L 347.9625 435.624882 
" clip-path="url(#p44c4d6bca2)" style="fill: none; stroke: #000000; stroke-width: 4"/>
   </g>
   <g id="LineCollection_3">
    <path d="M 362.3625 393.843206 
L 437.9625 393.843206 
" clip-path="url(#p44c4d6bca2)" style="fill: none; stroke: #000000; stroke-width: 4"/>
   </g>
   <g id="LineCollection_4">
    <path d="M 452.3625 419.462808 
L 527.9625 419.462808 
" clip-path="url(#p44c4d6bca2)" style="fill: none; stroke: #000000; stroke-width: 4"/>
   </g>
   <g id="LineCollection_5">
    <path d="M 542.3625 420.001872 
L 617.9625 420.001872 
" clip-path="url(#p44c4d6bca2)" style="fill: none; stroke: #000000; stroke-width: 4"/>
   </g>
   <g id="LineCollection_6">
    <path d="M 632.3625 404.348848 
L 707.9625 404.348848 
" clip-path="url(#p44c4d6bca2)" style="fill: none; stroke: #000000; stroke-width: 4"/>
   </g>
   <g id="LineCollection_7">
    <path d="M 722.3625 469.102727 
L 797.9625 469.102727 
" clip-path="url(#p44c4d6bca2)" style="fill: none; stroke: #000000; stroke-width: 4"/>
   </g>
   <g id="LineCollection_8">
    <path d="M 812.3625 340.976443 
L 887.9625 340.976443 
" clip-path="url(#p44c4d6bca2)" style="fill: none; stroke: #000000; stroke-width: 4"/>
   </g>
   <g id="PathCollection_1">
    <defs>
     <path id="m4238d02671" d="M 0 6.519202 
C 1.728913 6.519202 3.387246 5.832298 4.609772 4.609772 
C 5.832298 3.387246 6.519202 1.728913 6.519202 0 
C 6.519202 -1.728913 5.832298 -3.387246 4.609772 -4.609772 
C 3.387246 -5.832298 1.728913 -6.519202 0 -6.519202 
C -1.728913 -6.519202 -3.387246 -5.832298 -4.609772 -4.609772 
C -5.832298 -3.387246 -6.519202 -1.728913 -6.519202 0 
C -6.519202 1.728913 -5.832298 3.387246 -4.609772 4.609772 
C -3.387246 5.832298 -1.728913 6.519202 0 6.519202 
z
" style="stroke: #000000; stroke-width: 1.8"/>
    </defs>
    <g clip-path="url(#p44c4d6bca2)">
     <use xlink:href="#m4238d02671" x="187.7625" y="337.974541" style="fill: #808080; stroke: #000000; stroke-width: 1.8"/>
     <use xlink:href="#m4238d02671" x="220.1625" y="408.679832" style="fill: #808080; stroke: #000000; stroke-width: 1.8"/>
     <use xlink:href="#m4238d02671" x="227.3625" y="389.705366" style="fill: #808080; stroke: #000000; stroke-width: 1.8"/>
    </g>
   </g>
   <g id="PathCollection_2">
    <defs>
     <path id="me4afc831ee" d="M 0 6.519202 
C 1.728913 6.519202 3.387246 5.832298 4.609772 4.609772 
C 5.832298 3.387246 6.519202 1.728913 6.519202 0 
C 6.519202 -1.728913 5.832298 -3.387246 4.609772 -4.609772 
C 3.387246 -5.832298 1.728913 -6.519202 0 -6.519202 
C -1.728913 -6.519202 -3.387246 -5.832298 -4.609772 -4.609772 
C -5.832298 -3.387246 -6.519202 -1.728913 -6.519202 0 
C -6.519202 1.728913 -5.832298 3.387246 -4.609772 4.609772 
C -3.387246 5.832298 -1.728913 6.519202 0 6.519202 
z
" style="stroke: #000000; stroke-width: 1.8"/>
    </defs>
    <g clip-path="url(#p44c4d6bca2)">
     <use xlink:href="#me4afc831ee" x="277.7625" y="426.475508" style="fill: #ff0000; stroke: #000000; stroke-width: 1.8"/>
     <use xlink:href="#me4afc831ee" x="310.1625" y="409.471376" style="fill: #ff0000; stroke: #000000; stroke-width: 1.8"/>
     <use xlink:href="#me4afc831ee" x="317.3625" y="470.927761" style="fill: #ff0000; stroke: #000000; stroke-width: 1.8"/>
    </g>
   </g>
   <g id="PathCollection_3">
    <defs>
     <path id="ma4259b9f73" d="M 0 6.519202 
C 1.728913 6.519202 3.387246 5.832298 4.609772 4.609772 
C 5.832298 3.387246 6.519202 1.728913 6.519202 0 
C 6.519202 -1.728913 5.832298 -3.387246 4.609772 -4.609772 
C 3.387246 -5.832298 1.728913 -6.519202 0 -6.519202 
C -1.728913 -6.519202 -3.387246 -5.832298 -4.609772 -4.609772 
C -5.832298 -3.387246 -6.519202 -1.728913 -6.519202 0 
C -6.519202 1.728913 -5.832298 3.387246 -4.609772 4.609772 
C -3.387246 5.832298 -1.728913 6.519202 0 6.519202 
z
" style="stroke: #000000; stroke-width: 1.8"/>
    </defs>
    <g clip-path="url(#p44c4d6bca2)">
     <use xlink:href="#ma4259b9f73" x="367.7625" y="454.484036" style="fill: #ffa500; stroke: #000000; stroke-width: 1.8"/>
     <use xlink:href="#ma4259b9f73" x="400.1625" y="376.816747" style="fill: #ffa500; stroke: #000000; stroke-width: 1.8"/>
     <use xlink:href="#ma4259b9f73" x="407.3625" y="350.228836" style="fill: #ffa500; stroke: #000000; stroke-width: 1.8"/>
    </g>
   </g>
   <g id="PathCollection_4">
    <defs>
     <path id="mce39fa259b" d="M 0 6.519202 
C 1.728913 6.519202 3.387246 5.832298 4.609772 4.609772 
C 5.832298 3.387246 6.519202 1.728913 6.519202 0 
C 6.519202 -1.728913 5.832298 -3.387246 4.609772 -4.609772 
C 3.387246 -5.832298 1.728913 -6.519202 0 -6.519202 
C -1.728913 -6.519202 -3.387246 -5.832298 -4.609772 -4.609772 
C -5.832298 -3.387246 -6.519202 -1.728913 -6.519202 0 
C -6.519202 1.728913 -5.832298 3.387246 -4.609772 4.609772 
C -3.387246 5.832298 -1.728913 6.519202 0 6.519202 
z
" style="stroke: #000000; stroke-width: 1.8"/>
    </defs>
    <g clip-path="url(#p44c4d6bca2)">
     <use xlink:href="#mce39fa259b" x="457.7625" y="430.659313" style="fill: #32cd32; stroke: #000000; stroke-width: 1.8"/>
     <use xlink:href="#mce39fa259b" x="490.1625" y="421.872764" style="fill: #32cd32; stroke: #000000; stroke-width: 1.8"/>
     <use xlink:href="#mce39fa259b" x="497.3625" y="405.856349" style="fill: #32cd32; stroke: #000000; stroke-width: 1.8"/>
    </g>
   </g>
   <g id="PathCollection_5">
    <defs>
     <path id="md61cdd659b" d="M 0 6.519202 
C 1.728913 6.519202 3.387246 5.832298 4.609772 4.609772 
C 5.832298 3.387246 6.519202 1.728913 6.519202 0 
C 6.519202 -1.728913 5.832298 -3.387246 4.609772 -4.609772 
C 3.387246 -5.832298 1.728913 -6.519202 0 -6.519202 
C -1.728913 -6.519202 -3.387246 -5.832298 -4.609772 -4.609772 
C -5.832298 -3.387246 -6.519202 -1.728913 -6.519202 0 
C -6.519202 1.728913 -5.832298 3.387246 -4.609772 4.609772 
C -3.387246 5.832298 -1.728913 6.519202 0 6.519202 
z
" style="stroke: #000000; stroke-width: 1.8"/>
    </defs>
    <g clip-path="url(#p44c4d6bca2)">
     <use xlink:href="#md61cdd659b" x="547.7625" y="407.1524" style="fill: #008000; stroke: #000000; stroke-width: 1.8"/>
     <use xlink:href="#md61cdd659b" x="580.1625" y="401.65362" style="fill: #008000; stroke: #000000; stroke-width: 1.8"/>
     <use xlink:href="#md61cdd659b" x="587.3625" y="451.199598" style="fill: #008000; stroke: #000000; stroke-width: 1.8"/>
    </g>
   </g>
   <g id="PathCollection_6">
    <defs>
     <path id="me1abace990" d="M 0 6.519202 
C 1.728913 6.519202 3.387246 5.832298 4.609772 4.609772 
C 5.832298 3.387246 6.519202 1.728913 6.519202 0 
C 6.519202 -1.728913 5.832298 -3.387246 4.609772 -4.609772 
C 3.387246 -5.832298 1.728913 -6.519202 0 -6.519202 
C -1.728913 -6.519202 -3.387246 -5.832298 -4.609772 -4.609772 
C -5.832298 -3.387246 -6.519202 -1.728913 -6.519202 0 
C -6.519202 1.728913 -5.832298 3.387246 -4.609772 4.609772 
C -3.387246 5.832298 -1.728913 6.519202 0 6.519202 
z
" style="stroke: #000000; stroke-width: 1.8"/>
    </defs>
    <g clip-path="url(#p44c4d6bca2)">
     <use xlink:href="#me1abace990" x="637.7625" y="401.66576" style="fill: #0000ff; stroke: #000000; stroke-width: 1.8"/>
     <use xlink:href="#me1abace990" x="670.1625" y="420.292111" style="fill: #0000ff; stroke: #000000; stroke-width: 1.8"/>
     <use xlink:href="#me1abace990" x="677.3625" y="391.088672" style="fill: #0000ff; stroke: #000000; stroke-width: 1.8"/>
    </g>
   </g>
   <g id="PathCollection_7">
    <defs>
     <path id="m9a17b3b910" d="M 0 6.519202 
C 1.728913 6.519202 3.387246 5.832298 4.609772 4.609772 
C 5.832298 3.387246 6.519202 1.728913 6.519202 0 
C 6.519202 -1.728913 5.832298 -3.387246 4.609772 -4.609772 
C 3.387246 -5.832298 1.728913 -6.519202 0 -6.519202 
C -1.728913 -6.519202 -3.387246 -5.832298 -4.609772 -4.609772 
C -5.832298 -3.387246 -6.519202 -1.728913 -6.519202 0 
C -6.519202 1.728913 -5.832298 3.387246 -4.609772 4.609772 
C -3.387246 5.832298 -1.728913 6.519202 0 6.519202 
z
" style="stroke: #000000; stroke-width: 1.8"/>
    </defs>
    <g clip-path="url(#p44c4d6bca2)">
     <use xlink:href="#m9a17b3b910" x="727.7625" y="432.229067" style="fill: #800080; stroke: #000000; stroke-width: 1.8"/>
     <use xlink:href="#m9a17b3b910" x="760.1625" y="408.819404" style="fill: #800080; stroke: #000000; stroke-width: 1.8"/>
     <use xlink:href="#m9a17b3b910" x="767.3625" y="566.259711" style="fill: #800080; stroke: #000000; stroke-width: 1.8"/>
    </g>
   </g>
   <g id="PathCollection_8">
    <defs>
     <path id="m9cee030533" d="M 0 6.519202 
C 1.728913 6.519202 3.387246 5.832298 4.609772 4.609772 
C 5.832298 3.387246 6.519202 1.728913 6.519202 0 
C 6.519202 -1.728913 5.832298 -3.387246 4.609772 -4.609772 
C 3.387246 -5.832298 1.728913 -6.519202 0 -6.519202 
C -1.728913 -6.519202 -3.387246 -5.832298 -4.609772 -4.609772 
C -5.832298 -3.387246 -6.519202 -1.728913 -6.519202 0 
C -6.519202 1.728913 -5.832298 3.387246 -4.609772 4.609772 
C -3.387246 5.832298 -1.728913 6.519202 0 6.519202 
z
" style="stroke: #000000; stroke-width: 1.8"/>
    </defs>
    <g clip-path="url(#p44c4d6bca2)">
     <use xlink:href="#m9cee030533" x="817.7625" y="295.544712" style="fill: #a52a2a; stroke: #000000; stroke-width: 1.8"/>
     <use xlink:href="#m9cee030533" x="850.1625" y="357.540082" style="fill: #a52a2a; stroke: #000000; stroke-width: 1.8"/>
     <use xlink:href="#m9cee030533" x="857.3625" y="369.844535" style="fill: #a52a2a; stroke: #000000; stroke-width: 1.8"/>
    </g>
   </g>
  </g>
 </g>
 <defs>
  <clipPath id="p44c4d6bca2">
   <rect x="157.1625" y="23.592734" width="756" height="568.8"/>
  </clipPath>
 </defs>
</svg>
